<?xml version="1.0" encoding="UTF-8"?>
<svg id="Layer_1" data-name="Layer 1" xmlns="http://www.w3.org/2000/svg" xmlns:xlink="http://www.w3.org/1999/xlink" viewBox="0 0 64 64">
  <defs>
    <style>
      .cls-1, .cls-2 {
        fill: none;
      }

      .cls-3 {
        fill: #fbf6e8;
      }

      .cls-4 {
        fill: #fbe171;
      }

      .cls-5 {
        stroke-width: .36px;
      }

      .cls-5, .cls-6 {
        fill: #162e50;
        stroke: #fbf6e8;
      }

      .cls-5, .cls-6, .cls-2 {
        stroke-miterlimit: 10;
      }

      .cls-6 {
        stroke-width: .28px;
      }

      .cls-2 {
        stroke: #fbe171;
        stroke-dasharray: .17 .17;
        stroke-width: .27px;
      }

      .cls-7 {
        opacity: .55;
      }

      .cls-8 {
        clip-path: url(#clippath);
      }
    </style>
    <clipPath id="clippath">
      <ellipse class="cls-1" cx="31.93" cy="32.04" rx="17.01" ry="17.08"/>
    </clipPath>
  </defs>
  <path class="cls-4" d="M61.64,51.61c-3.75,7.95-9.4,10.57-12.14,11.4-.89.27-1.84.12-2.63-.4-5.2-3.43-13.48-3.27-15.05-3.2-.11,0-.22,0-.33,0-1.56-.1-9.84-.46-15.12,2.83-.8.5-1.75.63-2.63.34-2.71-.9-8.3-3.65-11.86-11.7-.38-.85-.4-1.83-.05-2.7.94-2.34,2.76-7.97,2.79-16.52.17-8.55-1.51-14.22-2.39-16.59-.33-.88-.28-1.85.12-2.7C6.11,4.43,11.77,1.81,14.5.98c.89-.27,1.84-.12,2.62.4,5.2,3.43,13.49,3.26,15.05,3.2.11,0,.22,0,.33,0,1.56.1,9.84.46,15.12-2.83.8-.5,1.75-.63,2.63-.34,2.71.9,8.3,3.65,11.86,11.7.38.85.4,1.83.05,2.7-.94,2.34-2.76,7.97-2.79,16.52-.17,8.55,1.51,14.22,2.39,16.59.33.88.28,1.85-.12,2.7Z"/>
  <g>
    <circle class="cls-6" cx="32" cy="32" r="26.06"/>
    <circle class="cls-5" cx="32" cy="32" r="16.89"/>
    <g>
      <path class="cls-3" d="M14.28,22.91l-.12-.07c.05-.11.08-.2.09-.27.01-.07,0-.14-.03-.2-.03-.07-.09-.16-.18-.28l-1.72-2.35.08-.13,2.93.51c.15.03.28.03.37,0,.09-.03.18-.1.28-.22l.12.07-.7,1.14-.12-.07.08-.18c.04-.09.04-.17,0-.22-.04-.05-.12-.09-.24-.11l-2.48-.45.08-.12,1.48,1.96c.1.13.18.2.26.21.07,0,.15-.04.22-.13l.08-.11.12.07-.59.95ZM13.71,21.4l-.16-.1.75-1.21.16.1-.75,1.21Z"/>
      <path class="cls-3" d="M16.66,19.44c-.08.09-.17.18-.27.27-.11.09-.2.15-.29.18l-.5-.4.09-.11c.19.11.36.15.51.12.15-.03.27-.1.37-.22.09-.11.13-.22.13-.33,0-.11-.06-.21-.15-.28-.09-.07-.17-.1-.26-.09-.09.01-.19.04-.3.09l-.35.15c-.21.09-.38.12-.5.11-.12-.02-.23-.06-.31-.13-.11-.09-.18-.2-.22-.32-.03-.13-.03-.26,0-.4.04-.14.11-.28.22-.41.07-.09.15-.17.24-.23.08-.06.17-.11.25-.15l.43.35-.09.11c-.08-.04-.17-.07-.25-.09-.09-.01-.17,0-.25.02-.08.03-.16.08-.23.17-.09.11-.13.22-.12.32s.05.19.14.26c.07.06.15.08.23.08.09,0,.19-.03.32-.08l.32-.14c.18-.08.33-.13.46-.14.13,0,.26.04.38.13.13.1.21.22.24.36.03.14.03.28-.01.42-.04.14-.11.27-.21.39Z"/>
      <path class="cls-3" d="M17.8,18.14c-.1.1-.19.16-.28.19-.09.02-.17.02-.24,0-.07-.03-.14-.07-.19-.12-.08-.08-.13-.18-.15-.31-.02-.13-.01-.3.04-.5.05-.2.14-.45.27-.74l.05-.11-.32-.34c-.08-.08-.17-.13-.28-.13-.11,0-.21.05-.3.14-.08.08-.12.17-.12.28,0,.11.03.23.12.36.02.03.02.07,0,.13-.02.06-.07.12-.13.19-.04.04-.07.06-.1.07-.03.01-.05,0-.08-.04-.05-.12-.07-.26-.06-.41.01-.15.05-.3.11-.45.06-.15.14-.27.24-.38.14-.14.3-.23.46-.25.16-.02.3.03.42.16l.99,1.05c.09.09.16.12.23.1.07-.02.17-.09.31-.21l.08.08-.09.15c-.05.09-.09.16-.12.21-.03.05-.06.08-.08.11-.06.06-.12.09-.17.1-.06,0-.11,0-.16-.03-.05-.02-.09-.04-.11-.06l-.03.03c0,.19-.03.34-.08.45-.05.11-.12.21-.21.3ZM17.77,17.73c.08-.08.13-.16.16-.24.03-.08.05-.15.06-.22l-.57-.61-.02.04c-.1.22-.16.4-.19.54-.03.14-.03.26,0,.34.02.08.06.15.1.19.14.14.29.13.46-.04Z"/>
      <path class="cls-3" d="M19.72,16.39c-.15.12-.3.18-.46.18-.15,0-.3-.1-.45-.27l-1-1.23-.23.19-.09-.11c.1-.26.14-.52.11-.79l.11-.09.24.3.09.11,1.01,1.25c.08.1.15.16.22.18.07.02.14.02.21,0,.07-.03.13-.07.2-.12.08-.07.14-.14.19-.21.04-.07.08-.15.1-.22l.13.02c-.01.14-.05.28-.1.43-.06.15-.15.28-.29.39ZM17.99,14.93l-.18-.22.92-.75.04.06.04.24-.83.67Z"/>
      <path class="cls-3" d="M21.41,15.18c-.21.14-.43.21-.65.22-.22.01-.43-.03-.62-.14-.19-.1-.36-.26-.49-.48-.13-.2-.2-.41-.21-.63-.01-.22.03-.43.13-.63.1-.2.26-.37.47-.5.21-.14.43-.21.65-.22.22-.01.42.03.62.14.19.1.36.26.49.47.13.2.2.41.22.63.01.22-.03.43-.13.63-.1.2-.26.37-.47.5ZM21.38,14.98c.18-.11.29-.28.32-.49.03-.21-.04-.45-.21-.73-.12-.18-.25-.33-.41-.45-.16-.12-.32-.19-.49-.22-.17-.02-.34.02-.5.12-.18.11-.29.28-.32.49-.03.21.04.46.22.73.11.18.25.33.41.45.16.12.32.19.49.22.17.02.34-.02.5-.12Z"/>
      <path class="cls-3" d="M22.56,14.33l-.05-.13.12-.08c.08-.05.13-.1.14-.14.02-.05,0-.11-.03-.2l-.54-1.3c-.04-.09-.09-.15-.14-.17-.06-.02-.16-.01-.31.03l-.05-.11.58-.47.06-.03.13.32h.03c.09-.19.18-.33.27-.43.09-.1.21-.18.34-.23.13-.05.25-.07.37-.07.12,0,.23.07.32.19h.02c.1-.2.19-.35.29-.45s.21-.18.34-.23c.11-.04.21-.07.31-.07.1,0,.19.02.28.08.08.06.15.15.21.29l.57,1.37c.04.09.08.15.12.17.04.02.11.02.2,0l.14-.03.05.13-1.09.45-.05-.13.12-.08c.08-.05.13-.1.14-.14.02-.05,0-.11-.03-.2l-.51-1.24c-.05-.12-.1-.2-.16-.24-.06-.04-.12-.06-.19-.06-.07,0-.14.02-.21.05-.11.04-.2.1-.27.18-.07.08-.14.18-.2.3l.58,1.4c.04.09.08.15.12.17.04.02.11.02.2,0l.14-.03.05.13-1.09.45-.05-.13.12-.08c.08-.05.13-.1.14-.14.02-.05,0-.11-.03-.2l-.51-1.24c-.05-.12-.1-.2-.16-.24-.06-.04-.12-.06-.19-.06-.07,0-.14.02-.21.05-.11.04-.2.11-.27.18-.07.08-.14.18-.2.3l.58,1.4c.04.09.08.15.12.17.04.02.11.02.2,0l.14-.03.05.13-1.09.45Z"/>
      <path class="cls-3" d="M27.03,12.72c-.14.03-.25.04-.34,0-.09-.03-.16-.07-.21-.13-.05-.06-.08-.13-.1-.2-.02-.1-.01-.22.04-.34.05-.12.15-.26.3-.41.15-.15.35-.31.62-.48l.1-.07-.09-.46c-.02-.11-.08-.2-.17-.26-.09-.06-.2-.07-.33-.04-.1.02-.19.08-.25.17-.06.09-.09.21-.09.37,0,.03-.02.07-.07.11-.05.04-.12.07-.21.09-.05.01-.09.02-.12,0-.03,0-.04-.03-.04-.08.02-.13.08-.26.17-.38.09-.12.2-.23.33-.33.13-.09.26-.16.4-.19.2-.05.37-.04.52.03.15.07.24.18.28.36l.29,1.42c.03.12.07.19.14.21.07.02.2.01.38-.02l.03.11-.15.08c-.09.05-.16.09-.22.12-.05.02-.1.04-.13.05-.08.02-.15.02-.2-.01-.05-.03-.09-.06-.12-.11-.03-.05-.05-.08-.06-.11h-.04c-.1.17-.2.28-.31.35-.1.07-.22.12-.34.14ZM27.22,12.35c.11-.03.2-.07.26-.12.06-.05.12-.11.17-.16l-.17-.82-.03.02c-.2.13-.35.26-.45.36-.1.11-.16.2-.18.29s-.03.16-.01.22c.05.19.18.26.41.21Z"/>
      <path class="cls-3" d="M30.62,12.14c-.14,0-.29,0-.43-.03-.14-.03-.29-.08-.44-.16l-.05-.79h.14c.04.26.14.46.29.6.15.14.34.2.57.18.21-.01.37-.08.49-.2.12-.12.17-.27.16-.45,0-.12-.05-.23-.13-.32-.08-.09-.21-.18-.39-.26l-.54-.26c-.22-.11-.39-.22-.49-.33-.1-.12-.16-.25-.17-.42-.01-.18.03-.34.12-.48.09-.14.21-.26.38-.35.16-.09.35-.14.57-.15.13,0,.25,0,.38.02s.25.06.38.11l.04.59h-.14c-.04-.18-.13-.32-.25-.41-.13-.09-.29-.13-.48-.12-.2.01-.36.07-.47.18-.11.11-.16.23-.15.39,0,.12.05.22.13.31.08.09.19.17.34.23l.56.26c.17.08.31.16.42.24.1.08.18.17.22.25.04.09.07.19.08.3.01.19-.03.36-.12.52-.09.15-.22.28-.39.37-.17.09-.37.15-.61.16Z"/>
      <path class="cls-3" d="M32.6,12.09c-.14,0-.25-.04-.33-.09-.08-.05-.13-.11-.16-.18s-.04-.15-.04-.22c0-.11.05-.21.13-.32.08-.1.22-.21.4-.31.18-.1.43-.2.73-.29l.12-.04.04-.47c0-.12-.02-.22-.09-.3-.07-.08-.17-.13-.31-.13-.11,0-.2.03-.29.09-.09.07-.15.18-.19.33,0,.03-.04.06-.1.08-.06.02-.14.03-.23.03-.05,0-.09-.01-.12-.03-.03-.01-.03-.04-.02-.09.06-.12.15-.23.27-.32.12-.09.26-.17.41-.22.15-.05.3-.08.44-.07.2.01.37.07.49.17.12.1.18.25.16.42l-.12,1.44c0,.12.02.2.08.24.06.04.18.07.37.09v.11s-.17.03-.17.03c-.1.03-.18.04-.24.05-.06,0-.1.01-.13,0-.08,0-.15-.03-.19-.07-.04-.04-.07-.09-.08-.14-.01-.05-.02-.09-.03-.12h-.04c-.14.12-.27.2-.39.24-.12.04-.24.05-.36.04ZM32.89,11.8c.11,0,.21,0,.28-.04.08-.03.14-.07.21-.11l.07-.83h-.04c-.23.09-.41.16-.53.23-.12.08-.21.15-.25.22-.05.07-.07.14-.07.2-.01.2.1.3.34.32Z"/>
      <path class="cls-3" d="M35.37,12.38c-.21-.04-.39-.12-.53-.26-.14-.13-.25-.3-.3-.49-.06-.2-.07-.41-.02-.64.05-.25.14-.47.29-.65.15-.18.32-.31.53-.39.21-.08.43-.1.67-.05.11.02.21.05.32.1.1.04.2.11.29.19l.15-.8c.02-.1,0-.17-.03-.22-.04-.05-.13-.1-.28-.15l.02-.12.75-.07h.06s-.58,3.15-.58,3.15c-.02.1,0,.17.03.22.04.05.13.1.29.15l-.02.13-.74.04h-.06s.06-.33.06-.33h-.04c-.1.07-.2.13-.3.16-.1.04-.19.06-.28.06s-.17,0-.26-.02ZM35.65,12.12c.1.02.2.02.3,0,.11-.02.21-.07.33-.15l.2-1.08c.03-.16.02-.3-.02-.42-.05-.11-.11-.2-.21-.27-.09-.07-.19-.11-.31-.13-.25-.05-.46,0-.62.13-.16.14-.27.36-.33.66-.04.22-.04.42,0,.6.04.18.12.32.23.44.11.11.26.19.43.22Z"/>
      <path class="cls-3" d="M37.51,14.1c-.25-.08-.44-.2-.56-.35-.12-.15-.15-.31-.1-.47.02-.06.06-.13.12-.2.06-.07.16-.14.29-.21l.33-.17.16.08c-.14.08-.25.16-.33.21s-.13.13-.16.21c-.04.13-.01.26.09.37.11.11.27.21.5.28.25.08.46.1.64.05.17-.05.28-.15.34-.31.03-.1.02-.18-.03-.25-.05-.07-.16-.13-.33-.2l-.84-.34c-.13-.06-.23-.13-.3-.21s-.08-.18-.05-.27c.03-.08.07-.13.14-.17.07-.03.16-.08.27-.13l.18-.09.19.06-.18.11c-.06.03-.1.06-.12.08-.02.02-.03.04-.04.06-.01.04,0,.08.02.11.02.03.07.07.14.1l.83.35c.37.15.51.39.4.7-.06.19-.17.34-.34.45-.16.11-.36.18-.58.21-.22.03-.45,0-.68-.08ZM38.23,12.18c-.17-.05-.31-.14-.41-.25-.11-.11-.18-.24-.22-.38-.04-.14-.03-.29.02-.45.05-.16.13-.28.25-.38.12-.1.25-.16.41-.18.16-.03.32-.01.49.04l.18.07c.19.1.33.24.41.42.08.18.09.37.02.57-.05.16-.13.28-.25.38-.12.1-.25.16-.41.19-.16.03-.32.01-.49-.04ZM38.33,12.02c.14.05.27.03.38-.04.11-.07.19-.2.25-.38.04-.14.06-.26.05-.38,0-.11-.04-.21-.1-.29-.06-.08-.14-.14-.25-.17-.14-.05-.27-.03-.38.04-.11.07-.19.2-.25.38-.04.14-.06.26-.05.38,0,.11.04.21.11.29.06.08.14.14.25.17ZM38.75,10.66l.02-.07,1.18.15.09.03-.09.28-1.19-.39Z"/>
      <path class="cls-3" d="M39.74,13.68c-.13-.06-.22-.13-.27-.2-.05-.07-.08-.15-.08-.23,0-.08.01-.15.04-.22.04-.1.12-.18.24-.25.12-.07.28-.11.48-.14.21-.03.47-.03.79,0h.12s.21-.41.21-.41c.05-.1.06-.21.02-.31-.04-.1-.12-.18-.24-.24-.1-.04-.2-.05-.3-.02-.1.03-.2.11-.3.24-.02.03-.06.04-.12.04-.06,0-.14-.02-.22-.06-.05-.02-.08-.04-.1-.07-.02-.02-.02-.05.01-.09.1-.09.22-.16.37-.2.15-.04.3-.06.46-.06.16,0,.31.04.44.1.19.09.32.2.39.34.08.14.08.29,0,.45l-.65,1.29c-.05.11-.06.19-.02.25.04.06.15.13.31.22l-.05.1-.17-.03c-.1-.01-.19-.03-.24-.04-.06-.01-.1-.03-.13-.04-.08-.04-.13-.08-.15-.13-.02-.05-.03-.1-.03-.16,0-.05.01-.1.02-.13l-.03-.02c-.18.06-.33.09-.45.08-.12-.01-.24-.04-.35-.09ZM40.12,13.51c.1.05.19.07.28.07.08,0,.16,0,.23-.02l.38-.75h-.04c-.24-.02-.43-.02-.58,0-.14.02-.25.06-.32.11-.07.05-.12.11-.14.16-.08.18-.02.32.2.42Z"/>
      <path class="cls-3" d="M41.26,14.25l.08-.12.13.06c.09.04.15.05.2.04.05-.01.1-.06.15-.14l.79-1.17c.06-.08.08-.16.07-.22-.01-.06-.08-.14-.2-.25l.07-.1.71.23.05.04-.19.29.02.02c.2-.03.37-.03.5,0,.13.02.26.08.38.16.11.08.2.17.26.28.06.11.07.23.02.37h.02c.21-.01.39,0,.52.01.14.02.27.08.38.16.1.07.17.14.23.22.06.08.09.17.09.28,0,.1-.04.21-.12.34l-.83,1.23c-.05.08-.08.15-.07.19,0,.05.04.1.11.17l.1.1-.08.12-.97-.66.08-.12.13.06c.09.04.15.05.2.04.05-.01.1-.06.15-.14l.75-1.11c.07-.1.11-.19.11-.27,0-.07-.01-.13-.05-.19-.04-.05-.09-.1-.16-.15-.1-.07-.2-.11-.3-.12-.1-.02-.22-.02-.36,0l-.85,1.25c-.05.08-.08.15-.07.19,0,.05.04.1.11.17l.1.1-.08.12-.97-.66.08-.12.13.06c.09.04.15.05.2.04.05-.01.1-.06.15-.14l.75-1.11c.07-.1.11-.19.11-.27,0-.07-.01-.13-.05-.19-.04-.05-.09-.1-.16-.15-.1-.07-.2-.11-.3-.13-.1-.02-.22-.02-.36,0l-.85,1.25c-.05.08-.08.15-.07.19,0,.05.04.1.11.17l.1.1-.08.12-.97-.66Z"/>
      <path class="cls-3" d="M45.06,17.1c-.1-.1-.17-.19-.19-.28-.03-.09-.03-.17,0-.24.02-.07.06-.14.11-.19.07-.08.18-.13.31-.16.13-.03.3-.02.5.02.2.04.45.13.75.26l.11.05.33-.33c.08-.08.12-.18.12-.29,0-.11-.05-.21-.15-.3-.08-.07-.17-.11-.28-.12-.11,0-.23.04-.36.13-.03.02-.07.02-.13,0-.06-.02-.13-.06-.19-.13-.04-.04-.06-.07-.08-.1-.01-.03,0-.05.04-.08.12-.05.26-.08.41-.07.15,0,.31.04.45.09.15.06.28.13.38.23.15.14.24.29.26.45.03.16-.02.3-.15.43l-1.03,1.02c-.09.09-.12.17-.1.23.02.07.1.17.22.31l-.07.08-.15-.08c-.09-.05-.17-.09-.22-.12-.05-.03-.09-.06-.11-.08-.06-.06-.09-.12-.1-.17,0-.06,0-.11.03-.16.02-.05.04-.09.06-.11l-.03-.03c-.19,0-.34-.02-.46-.07-.11-.05-.22-.12-.31-.2ZM45.47,17.06c.08.08.16.13.24.15.08.02.15.04.22.05l.6-.59-.04-.02c-.22-.09-.41-.15-.55-.17-.14-.02-.26-.02-.34,0-.08.03-.15.06-.19.11-.14.14-.12.3.05.46Z"/>
      <path class="cls-3" d="M45.52,19.11l.05-.05,1.46-.13.89-1.81c.05-.11.08-.2.09-.28,0-.08,0-.15-.04-.21l-.04-.07.11-.09.75.9-.11.09-.08-.08c-.16-.16-.29-.13-.4.08l-.76,1.48-.09-.1,1.47-.49c.16-.05.25-.11.29-.19.03-.07.02-.15-.05-.25l-.06-.08.11-.09.63.75-.11.09-.07-.07s-.08-.06-.12-.07c-.04-.01-.1-.01-.17,0-.07.01-.16.03-.28.07l-3.15.96-.31-.37Z"/>
      <path class="cls-3" d="M48.08,20.55c-.08-.12-.12-.22-.12-.32,0-.09.01-.17.05-.24.04-.07.09-.12.15-.16.09-.06.2-.09.33-.08.13,0,.29.05.48.14.19.09.41.23.67.42l.1.08.4-.24c.1-.06.16-.14.18-.25.02-.11,0-.21-.08-.33-.06-.09-.14-.15-.25-.18-.11-.03-.23-.02-.38.04-.03.01-.07,0-.13-.03-.05-.03-.11-.09-.16-.17-.03-.04-.05-.08-.05-.11,0-.03.01-.05.06-.07.13-.03.27-.02.42.03.15.04.29.11.42.2s.24.2.32.32c.11.17.16.34.15.5-.01.16-.09.29-.24.38l-1.23.75c-.1.06-.15.13-.15.21,0,.07.05.19.14.35l-.09.06-.13-.11c-.08-.07-.14-.12-.18-.16-.04-.04-.07-.08-.09-.1-.05-.07-.07-.13-.06-.19,0-.06.03-.11.06-.15.03-.04.06-.07.08-.1l-.02-.03c-.18-.04-.33-.1-.43-.17-.1-.08-.18-.16-.25-.27ZM48.48,20.6c.06.09.13.16.2.2.07.04.14.08.21.1l.72-.43-.03-.02c-.19-.14-.36-.24-.49-.3-.13-.06-.24-.08-.33-.07-.09,0-.16.03-.21.06-.17.11-.19.26-.06.46Z"/>
    </g>
    <g>
      <path class="cls-3" d="M8.53,30.15c.02-.35.11-.66.27-.91.16-.26.37-.45.63-.58.26-.13.56-.18.9-.16.33.02.62.12.86.29.24.17.43.39.55.68.12.28.17.61.15.96-.02.35-.11.66-.27.91-.16.25-.37.44-.63.57-.26.13-.56.18-.9.16-.33-.02-.62-.12-.86-.28-.24-.17-.43-.39-.55-.67-.12-.28-.17-.6-.15-.96ZM8.71,30.3c-.02.24.02.45.12.64.09.18.24.33.43.44.19.11.42.17.7.19.33.02.62-.02.88-.13.26-.11.46-.26.61-.46s.24-.44.25-.71c.02-.24-.02-.45-.12-.64-.09-.18-.23-.33-.42-.44-.19-.11-.42-.17-.7-.19-.33-.02-.62.02-.88.13-.26.11-.46.26-.61.46-.15.2-.24.44-.25.71Z"/>
      <path class="cls-3" d="M8.44,32.6l.14-.02.02.1c.02.08.05.15.08.19s.08.07.14.09c.06.02.14.02.23.01l2.18-.12c.14,0,.24-.04.29-.1.05-.06.07-.17.06-.33v-.1s.13-.02.13-.02l.13.94-2.61,1.47-.02-.13,2.91.63.13.91-.14.02-.02-.1c-.02-.1-.05-.17-.08-.22-.03-.05-.08-.07-.13-.08-.06,0-.13,0-.23.03l-2.06.49c-.11.02-.19.06-.25.09-.06.04-.1.08-.12.14-.02.06-.03.13-.03.23v.11s-.13.02-.13.02l-.19-1.37.14-.02.04.16c.03.12.08.2.14.22.07.03.18.02.35-.02l2.33-.55v.07s-3.11-.68-3.11-.68l-.02-.16,2.61-1.48-2.23.16c-.1,0-.18.03-.23.05-.05.03-.09.07-.11.14-.02.06-.02.15-.01.26v.1s-.13.02-.13.02l-.16-1.18Z"/>
      <path class="cls-3" d="M10.23,40.28c-.14-.34-.19-.66-.16-.96.03-.3.13-.57.3-.8.17-.23.41-.4.7-.52.22-.09.44-.13.67-.13.23,0,.45.05.66.14.21.09.4.23.57.41.17.18.31.4.42.66.08.19.13.38.17.56.03.18.04.39.03.61l-.58.24-.05-.13c.2-.15.31-.34.34-.56.03-.23-.01-.46-.11-.71-.11-.26-.25-.46-.44-.59-.19-.13-.4-.21-.64-.22-.24-.01-.48.03-.73.13-.18.07-.34.17-.49.3-.15.13-.27.27-.37.44-.1.16-.15.34-.17.53-.02.19.02.39.1.6.06.15.13.27.21.37.08.1.19.17.33.21.14.04.33.05.57.02l.05.13-.69.28c-.17-.18-.31-.35-.42-.52-.11-.17-.2-.33-.26-.49Z"/>
      <path class="cls-3" d="M11.05,42.06l.12-.08.12.16c.05.06.1.1.14.12.04.02.09.02.13.01s.09-.03.15-.07l1.95-1.26c.06-.04.1-.07.13-.11.03-.04.04-.08.04-.13,0-.05-.02-.11-.06-.18l-.09-.18.12-.08.77,1.19-.12.08-.12-.16c-.05-.06-.09-.1-.14-.12-.04-.02-.09-.03-.13-.01-.04.01-.09.03-.15.07l-1.95,1.26c-.06.04-.1.07-.13.11-.03.04-.04.08-.04.13,0,.05.02.11.05.18l.09.18-.12.08-.77-1.19ZM12.3,44.01l.12-.08.12.16c.05.06.1.1.14.12.04.02.09.02.13.01.04-.01.09-.03.15-.07l1.95-1.26c.06-.04.1-.07.13-.11.03-.04.04-.08.04-.13,0-.05-.02-.11-.06-.18l-.09-.18.12-.08.77,1.19-.12.08-.12-.16c-.05-.06-.09-.1-.14-.12-.04-.02-.09-.03-.13-.01-.04.01-.09.03-.15.07l-1.95,1.26c-.06.04-.1.07-.13.11-.03.04-.04.08-.04.13,0,.05.02.11.05.18l.09.18-.12.08-.77-1.19ZM12.82,41.79l.16-.1,1.21,1.88-.16.1-1.21-1.88Z"/>
      <path class="cls-3" d="M13.36,45.57l.1-.1c.1.08.18.13.24.16s.13.04.21.03c.08-.01.18-.04.31-.09l2.72-1,.11.12-1.23,2.69c-.07.14-.1.26-.09.36,0,.1.05.21.15.33l-.1.1-.94-1.01.1-.1.15.13c.08.07.15.09.21.07.06-.02.12-.09.17-.2l1.05-2.28.1.11-2.28.88c-.15.06-.24.12-.27.19-.03.07,0,.15.07.25l.09.11-.1.1-.78-.84ZM14.98,45.45l.14-.13.99,1.07-.14.13-.99-1.07Z"/>
      <path class="cls-3" d="M16.08,48.36l.09-.11.16.11c.07.04.12.07.17.08.05,0,.09,0,.13-.03.04-.02.08-.06.12-.11l1.5-1.78c.04-.05.07-.1.09-.14.02-.04.02-.09,0-.13-.01-.05-.05-.1-.11-.15l-.14-.14.09-.11,1.09.91-.09.11-.16-.11c-.06-.04-.12-.07-.17-.08-.05,0-.09,0-.13.03-.04.02-.08.06-.12.11l-1.5,1.78c-.04.05-.07.1-.09.14-.02.04-.02.09,0,.13.02.05.05.1.1.15l.14.14-.09.11-1.09-.91Z"/>
      <path class="cls-3" d="M18.86,49.91l1.44-2.18-.44-.27c-.13-.08-.24-.13-.33-.15-.09-.02-.18,0-.26.05-.09.05-.19.14-.3.26l-.12-.08.51-.69c.07.06.16.13.26.2.1.07.2.14.3.21l1.35.9c.09.06.18.12.29.18.11.07.21.12.3.18l-.44.74-.12-.08c.07-.16.11-.28.12-.38s0-.19-.06-.26c-.05-.08-.14-.16-.27-.25l-.42-.3-1.44,2.18c-.04.06-.06.11-.07.16,0,.05,0,.1.03.14.03.05.08.1.16.16l.12.09-.08.12-1.22-.81.08-.12.13.07c.09.05.16.07.21.08.05.01.1,0,.14-.03.04-.03.08-.07.12-.13Z"/>
      <path class="cls-3" d="M19.95,51.23l.06-.13c.12.04.21.06.28.06.07,0,.14-.01.2-.05.07-.04.15-.11.26-.2l2.17-1.92.14.07-.17,2.95c-.01.15,0,.28.04.36.04.09.13.17.26.25l-.06.13-1.24-.6.06-.13.19.06c.1.03.17.03.22-.01.05-.04.08-.13.09-.25l.16-2.5.13.07-1.81,1.64c-.12.11-.18.2-.18.27,0,.07.05.14.16.21l.12.07-.06.13-1.03-.5ZM21.42,50.53l.08-.17,1.31.63-.08.17-1.31-.63Z"/>
      <path class="cls-3" d="M26.52,53.82l-1.54-3.36c-.04.16-.08.32-.13.47-.04.15-.08.31-.13.48-.04.17-.09.35-.15.55-.06.2-.12.43-.19.69-.02.09-.03.16-.03.21,0,.05.03.1.08.14.05.04.12.07.21.1l.1.03-.04.14-1.1-.32.04-.14.1.02c.09.02.16.02.21,0,.05,0,.09-.03.12-.08.03-.04.06-.1.08-.18l.64-2.17c.04-.12.04-.21,0-.27-.03-.06-.12-.12-.26-.17l-.09-.04.04-.14.77.22,1.41,3.07c.06-.2.1-.39.15-.54.04-.16.08-.31.12-.45.04-.14.08-.28.12-.44.04-.15.09-.32.15-.51.03-.1.04-.18.04-.24,0-.06-.03-.11-.08-.15-.05-.04-.12-.07-.22-.11l-.1-.03.04-.14,1.1.32-.04.14-.1-.02c-.09-.02-.16-.02-.21,0-.05,0-.1.04-.13.09-.03.05-.06.12-.09.22l-.77,2.65-.13-.04Z"/>
      <path class="cls-3" d="M28.39,54.12l.02-.14h.15c.1,0,.17,0,.23-.02.05-.02.09-.04.12-.09.02-.04.04-.1.05-.17l.12-1-.68-1.38c-.05-.11-.1-.19-.14-.25-.04-.06-.09-.09-.13-.12-.05-.02-.11-.04-.2-.06l.02-.14,1.25.15-.02.14h-.1c-.11-.01-.18.01-.21.07-.03.06-.02.15.04.27l.61,1.29-.18-.02.88-1.1c.08-.1.11-.19.09-.26-.02-.07-.09-.11-.21-.13l-.1-.02.02-.14,1.01.12-.02.14c-.11,0-.2.01-.28.06-.08.05-.17.13-.27.24l-.93,1.13-.12,1.05c0,.07,0,.13,0,.18.01.05.05.08.1.11.05.03.12.05.21.07l.15.03-.02.14-1.46-.17Z"/>
      <path class="cls-3" d="M30.32,54.38v-.14c.12-.02.22-.04.28-.07.07-.03.12-.07.16-.13.04-.06.09-.16.14-.29l1.11-2.67h.16s1.14,2.73,1.14,2.73c.06.14.13.25.2.31s.19.1.34.12v.14s-1.37,0-1.37,0v-.14s.2-.02.2-.02c.1-.01.17-.05.19-.11.03-.06.02-.15-.03-.26l-.96-2.32h.15s-.9,2.27-.9,2.27c-.06.15-.07.26-.04.32.03.07.11.1.23.12h.14s0,.15,0,.15h-1.15ZM31.33,53.11v-.19s1.46,0,1.46,0v.19s-1.46,0-1.46,0Z"/>
      <path class="cls-3" d="M35.2,54.19l-.03-.14.19-.05c.11-.03.17-.08.2-.13.03-.05.04-.13.02-.24l-.43-2.28c-.02-.11-.05-.18-.1-.22-.05-.04-.13-.05-.24-.04l-.2.02-.03-.14,1.66-.31c.15-.03.28-.05.38-.08.1-.02.2-.05.28-.07l.21.73-.14.03c-.08-.19-.18-.32-.28-.38-.11-.06-.26-.07-.45-.03l-.7.13.25,1.36.95-.18c.11-.02.18-.06.22-.11.04-.05.05-.13.04-.24l-.02-.14.14-.03.2,1.05-.14.03-.04-.18c-.02-.09-.06-.14-.11-.17-.06-.03-.14-.03-.25-.01l-.95.18.18.98c.02.11.06.19.11.24.05.04.13.06.23.06l.25-.02.03.14-1.44.27Z"/>
      <path class="cls-3" d="M39.98,53.06c-.33.12-.65.15-.95.11-.3-.04-.56-.16-.78-.35-.22-.19-.39-.44-.5-.76-.11-.31-.14-.62-.08-.91.06-.29.2-.55.41-.77.21-.23.49-.4.83-.52.33-.12.65-.15.94-.11.29.05.55.16.77.35.22.19.39.45.5.77.11.31.14.61.08.9-.06.29-.19.55-.4.77-.21.22-.48.4-.82.52ZM40.04,52.83c.23-.08.41-.2.54-.36.13-.16.21-.35.24-.57.03-.22,0-.46-.1-.72-.11-.31-.26-.56-.46-.76-.2-.19-.42-.32-.67-.38s-.5-.05-.76.05c-.23.08-.41.2-.54.36-.13.16-.21.35-.24.56-.03.22,0,.46.1.72.11.31.26.56.46.76.2.19.42.32.67.38.25.06.5.05.76-.05Z"/>
      <path class="cls-3" d="M43.79,51.33c-.78.44-1.4.26-1.86-.56l-.7-1.24c-.06-.11-.13-.18-.2-.2-.07-.02-.16,0-.27.05l-.09.05-.07-.12,1.15-.65.07.12-.09.05c-.11.06-.17.13-.19.2-.02.07,0,.16.07.28l.66,1.17c.41.72.91.92,1.5.59.29-.16.45-.38.48-.65.03-.27-.07-.61-.3-1.02l-.6-1.06c-.06-.11-.13-.18-.2-.2-.07-.02-.16,0-.28.06l-.09.05-.07-.12.97-.55.07.12-.09.05c-.11.06-.17.13-.19.2-.02.07,0,.16.07.28l.63,1.12c.26.46.36.85.3,1.17-.06.32-.29.59-.69.82Z"/>
      <path class="cls-3" d="M48.2,48.14l-3.64-.62c.11.13.21.25.32.37.1.12.21.25.32.38.11.13.24.27.37.43.13.16.29.34.46.55.06.07.11.12.16.14.05.03.1.03.16,0,.06-.02.13-.06.21-.12l.08-.06.09.11-.88.73-.09-.11.07-.07c.06-.06.11-.12.13-.17.02-.05.02-.1,0-.15-.02-.05-.05-.11-.11-.17l-1.44-1.75c-.08-.1-.16-.15-.23-.16-.07,0-.16.03-.29.12l-.08.06-.09-.11.62-.52,3.33.56c-.14-.16-.26-.3-.37-.43-.11-.12-.21-.24-.3-.35-.09-.11-.19-.23-.29-.35-.1-.12-.21-.26-.34-.41-.07-.08-.13-.14-.18-.17-.05-.03-.11-.04-.17-.02-.06.02-.13.06-.21.12l-.08.06-.09-.11.88-.73.09.11-.07.07c-.06.06-.11.12-.13.17-.02.05-.02.1,0,.15.02.05.06.12.13.2l1.75,2.13-.1.09Z"/>
      <path class="cls-3" d="M49.09,47.27l-.11-.09.11-.16c.06-.09.09-.16.08-.22,0-.06-.06-.13-.14-.2l-1.78-1.49c-.08-.07-.16-.1-.22-.1-.06,0-.13.04-.21.12l-.14.14-.11-.09.99-1.19c.26-.31.53-.54.8-.68.27-.14.55-.19.83-.16.28.04.55.17.82.39.27.22.45.47.54.76s.1.58.02.88c-.08.31-.23.6-.47.89l-1,1.2ZM49.94,45.95c.28-.34.41-.67.39-1.02-.02-.34-.2-.65-.54-.94-.24-.2-.49-.33-.75-.38-.26-.05-.51-.03-.75.05-.24.09-.45.24-.63.45-.05.06-.11.13-.16.2-.05.07-.11.16-.19.26l2.01,1.68c.06.05.12.08.17.08.05,0,.11-.03.18-.09.07-.06.16-.16.27-.29Z"/>
      <path class="cls-3" d="M51.46,44.39l-.12-.07c.05-.11.07-.21.09-.28.01-.07,0-.14-.03-.21-.03-.07-.09-.16-.18-.27l-1.74-2.32.08-.14,2.93.41c.15.02.28.02.37-.01.09-.03.18-.11.27-.24l.12.07-.69,1.19-.12-.07.08-.18c.04-.1.04-.17,0-.22-.04-.05-.12-.09-.24-.11l-2.48-.36.08-.13,1.5,1.93c.1.13.18.2.26.2.07,0,.15-.04.22-.14l.08-.11.12.07-.58.99ZM50.88,42.87l-.16-.09.74-1.26.16.09-.74,1.26Z"/>
      <path class="cls-3" d="M53.26,39.99l-2.43-.98-.17.48c-.05.15-.08.26-.08.36,0,.09.03.17.1.25.07.07.17.16.32.25l-.06.14-.78-.36c.04-.08.09-.18.14-.29s.1-.23.15-.34l.61-1.5c.04-.1.08-.2.12-.32.04-.12.08-.23.11-.33l.81.28-.06.14c-.17-.04-.3-.05-.4-.04-.1,0-.18.04-.24.11-.06.07-.13.17-.19.31l-.21.47,2.43.98c.07.03.12.04.17.04s.09-.02.13-.06c.04-.04.08-.1.13-.19l.07-.13.13.05-.55,1.36-.13-.05.04-.14c.03-.09.04-.17.04-.22,0-.06-.02-.1-.05-.14-.03-.03-.09-.07-.15-.09Z"/>
      <path class="cls-3" d="M54.47,38.08l-.14-.04.03-.2c.01-.08.01-.14,0-.19-.01-.05-.04-.08-.08-.11-.04-.03-.09-.05-.15-.06l-2.24-.6c-.06-.02-.12-.02-.16-.02s-.09.02-.12.05c-.04.03-.07.09-.09.16l-.07.19-.14-.04.37-1.37.14.04-.03.2c-.01.08-.01.14,0,.19.01.05.04.08.08.11.04.03.09.05.15.06l2.24.6c.06.02.12.02.16.02s.09-.02.12-.05c.04-.03.07-.09.1-.16l.07-.19.14.04-.37,1.37Z"/>
      <path class="cls-3" d="M55.28,34.43c-.04.35-.15.65-.32.9-.17.25-.39.43-.66.54-.27.11-.57.15-.91.11-.33-.04-.61-.15-.85-.34-.23-.18-.4-.42-.51-.71-.11-.29-.14-.61-.09-.97.04-.35.15-.65.32-.89.17-.24.39-.42.66-.54.27-.11.57-.15.91-.11.33.04.61.15.84.34.23.18.4.42.51.71.11.29.14.61.09.97ZM55.1,34.28c.03-.24,0-.45-.08-.64-.08-.19-.21-.35-.4-.47-.18-.12-.41-.2-.69-.23-.33-.04-.62-.02-.88.07-.26.09-.47.23-.64.43s-.26.43-.3.7c-.03.24,0,.45.08.64.08.19.21.35.4.47.18.12.41.2.69.23.33.04.62.02.88-.07.26-.09.47-.23.64-.43.16-.19.26-.43.3-.7Z"/>
      <path class="cls-3" d="M55.31,28.88l-2.64,2.59c.16-.01.33-.03.48-.04.16-.01.32-.03.49-.04.17-.01.36-.03.57-.05.21-.02.44-.03.71-.05.09,0,.16-.02.21-.05.05-.02.08-.07.1-.12.02-.06.03-.14.03-.24v-.1s.14,0,.14,0l.08,1.15h-.14s-.02-.09-.02-.09c-.02-.09-.04-.16-.06-.2-.03-.05-.06-.08-.11-.09-.05-.01-.12-.02-.2-.01l-2.26.14c-.13,0-.21.04-.26.09-.04.05-.07.15-.07.3v.1s-.14,0-.14,0l-.05-.8,2.41-2.37c-.21.02-.4.03-.56.05-.16.01-.31.03-.46.04-.14.01-.29.02-.45.03-.16.01-.33.02-.53.04-.11,0-.19.02-.24.05-.05.02-.09.07-.11.12-.02.06-.03.14-.03.24v.1s-.14,0-.14,0l-.08-1.15h.14s.02.09.02.09c.02.09.04.16.06.2.03.05.07.08.12.09.06.01.13.02.24.01l2.76-.17v.13Z"/>
    </g>
    <path class="cls-4" d="M12.27,26.17c-.3.23-.58.22-.7.2-.04,0-.08-.03-.1-.07-.15-.23-.48-.39-.55-.42,0,0,0,0-.01,0-.06-.03-.39-.21-.66-.19-.04,0-.08-.01-.11-.04-.09-.09-.27-.3-.26-.68,0-.04.02-.08.05-.1.08-.07.26-.25.42-.58.17-.33.21-.58.21-.69,0-.04.02-.08.06-.1.3-.23.58-.22.7-.2.04,0,.08.03.1.07.15.23.48.39.55.42,0,0,0,0,.01,0,.06.03.39.21.66.19.04,0,.08.01.11.04.09.09.27.3.26.68,0,.04-.02.08-.05.1-.08.07-.26.25-.42.58-.17.33-.21.58-.21.69,0,.04-.02.08-.06.1Z"/>
    <path class="cls-4" d="M52.84,25.11c-.03.38-.22.58-.32.66-.03.03-.07.04-.12.03-.27-.05-.61.1-.68.13,0,0,0,0-.01,0-.07.02-.42.15-.58.37-.02.03-.06.05-.1.06-.13.01-.4,0-.68-.26-.03-.03-.05-.07-.05-.11,0-.11-.02-.36-.15-.7-.13-.34-.29-.54-.37-.62-.03-.03-.04-.07-.04-.11.03-.38.22-.58.32-.66.03-.03.07-.04.12-.03.27.05.61-.1.68-.13,0,0,0,0,.01,0,.07-.02.42-.15.58-.37.02-.03.06-.05.1-.06.13-.01.4,0,.68.26.03.03.05.07.05.11,0,.11.02.36.15.7.13.34.29.54.37.62.03.03.04.07.04.11Z"/>
    <path class="cls-2" d="M57.45,32c0,14.06-11.4,25.45-25.45,25.45S6.55,46.06,6.55,32,17.94,6.55,32,6.55s25.45,11.4,25.45,25.45Z"/>
    <g class="cls-8">
      <g class="cls-7">
        <path class="cls-4" d="M38.03,12.36c-.04.11-.07.2-.11.29-1.46,3.86-2.2,5.44-3.66,9.3-.04.09-.15.16-.22.24,0-.11-.04-.24,0-.33,1.28-3.41,1.85-4.54,3.14-7.95.19-.51.38-1.02.59-1.52.02-.06.11-.1.16-.15.04.05.07.09.1.13Z"/>
        <path class="cls-4" d="M36.23,23.33c1.31-1.76,1.21-1.6,2.51-3.34,1.2-1.61,2.4-3.22,3.6-4.83.04-.06.08-.13.13-.17.04-.03.11-.03.17-.05,0,.07.04.14.02.2-.02.07-.08.12-.12.18-2.45,3.3-3.51,4.68-5.96,7.99-.1.13-.18.24-.35.04Z"/>
        <path class="cls-4" d="M46.6,18.8c-.15.13-.23.2-.31.26-1.79,1.37-3.58,2.74-5.38,4.11-1.46,1.12.25-.19-1.21.93,0,0-.02.02-.02.02-.11.03-.21.06-.32.09.05-.1.08-.22.16-.28.78-.61.03-.04.82-.64,2.44-1.86,3.26-2.48,5.7-4.34.09-.07.18-.15.28-.2.05-.02.13.02.29.05Z"/>
        <path class="cls-4" d="M25.96,41.82c-.03.09-.06.15-.09.22-1.72,3.75-1,2.25-2.73,6-.03.06-.04.12-.08.17-.03.04-.12.07-.14.06-.04-.02-.07-.1-.06-.15.02-.09.06-.18.1-.26,1.71-3.73.98-2.21,2.69-5.94.04-.08.14-.12.21-.18,0,0,.06.06.1.09Z"/>
        <path class="cls-4" d="M23.39,39.61c-.1.13-.15.21-.21.28-1.33,1.55.85-.97-.47.57-1.33,1.55-2.65,3.1-3.99,4.64-.09.11-.25.15-.38.23.06-.13.1-.28.19-.38,2.64-3.08,1.77-2.09,4.42-5.17.06-.07.12-.15.2-.2.04-.03.12.01.24.03Z"/>
        <path class="cls-4" d="M32.64,11.12c.03.09.09.18.09.27-.07.98-.15,1.96-.23,2.94-.12,1.44-.24,2.88-.36,4.32-.15,1.74.11-1.4-.04.34,0,.07-.09.13-.14.19-.03-.08-.1-.15-.09-.23.06-.85.13-1.69.2-2.53.12-1.41-.16,2.07-.04.66.14-1.66.28-3.32.42-4.97.03-.32.05-.64.08-.96.04,0,.08-.02.12-.03Z"/>
        <path class="cls-4" d="M42.16,26.18c.08-.05.16-.11.25-.14,3.84-1.5,4.66-1.87,8.5-3.37.02,0,.04-.02.06-.02.09.01.41-.15.5-.13-.06.06-.33.33-.41.35-.49.2-.99.39-1.48.59-3.35,1.31-3.7,1.48-7.05,2.79-.1.04-.23.03-.34.05-.01-.04-.02-.08-.03-.12Z"/>
        <path class="cls-4" d="M27.98,49.64c.15-.98.29-1.91.43-2.84.28-1.84-.1.48.18-1.36.21-1.35.41-2.71.63-4.06.01-.08.1-.15.15-.22.03.09.1.18.09.27-.17,1.13-.34,2.25-.52,3.38-.35,2.25-.02.35-.37,2.6-.11.73-.22,1.47-.34,2.2-.01.08-.1.15-.15.22-.04-.08-.08-.15-.1-.19Z"/>
        <path class="cls-4" d="M30.73,50.08c-.03-.14-.08-.29-.08-.43.03-2.1.06-4.21.09-6.31.03-1.98-.06.81-.03-1.17,0-.07,0-.15.01-.22.01-.04.06-.09.1-.1.04,0,.11.04.12.08.02.09.02.19.02.28-.06,4.11,0,3.44-.06,7.54,0,.11-.03.21-.04.32-.04,0-.08,0-.12,0Z"/>
        <path class="cls-4" d="M14.73,41.15c3.56-2.34,2.07-1.32,5.63-3.65.05-.03.13,0,.21,0-.06.21-3.58,2.6-5.49,3.71-.08.05-.19.06-.29.08-.02-.05-.04-.09-.06-.14Z"/>
        <path class="cls-4" d="M21.29,33.66c-3.33,1.04-5.02,1.63-8.36,2.66-.14.04-.3.02-.45.02.13-.08.24-.19.38-.23,3.88-1.22,4.01-1.25,7.9-2.46.1-.03.22,0,.33,0,0,.05,0,.09,0,.14"/>
        <path class="cls-4" d="M34.2,41.94c.89,3.24.51,1.73,1.39,4.97.2.73.39,1.45.59,2.18.02.09.03.19.04.28-.04.01-.08.03-.12.04-.06-.13-.13-.25-.17-.38-.64-2.33-1.27-4.66-1.9-6.98"/>
        <path class="cls-4" d="M41.07,47.28c-.08-.1-.18-.18-.24-.29-1.33-2.2.55.99-.78-1.21-.79-1.31-1.59-2.63-2.39-3.94-.05-.09-.09-.18-.14-.27.03-.03.06-.05.09-.08.08.08.19.15.25.25.9,1.47,1.79,2.95,2.68,4.42,1.23,2.03-.76-1.32.47.71.06.1.12.21.17.32-.04.03-.08.06-.11.1Z"/>
        <path class="cls-4" d="M39.9,34.98c.11.03.23.05.33.1,1.72.87.36.19,2.08,1.06,1.93.98,3.86,1.96,5.8,2.94.11.06.21.13.35.22-.25.08-8.13-3.84-8.57-4.21,0-.04.01-.07.02-.11Z"/>
        <path class="cls-4" d="M23.76,26.31c-.68-.4.26.19-.42-.21-2.91-1.74-5.82-3.48-8.73-5.22-.11-.07-.19-.2-.28-.3.13.04.27.06.38.12,3.52,2.1,5.42,3.2,8.94,5.31.08.05.14.15.21.22-.03.03-.07.06-.1.09Z"/>
        <path class="cls-4" d="M27.59,13.56c.24.16,1.73,7.37,1.6,7.81-.05-.1-.13-.19-.15-.3-.24-1.2.08.43-.16-.77-.42-2.14-.85-4.28-1.27-6.42-.02-.1-.02-.21-.02-.31Z"/>
        <path class="cls-4" d="M29.97,13.18c.21.19.58,6.6.45,7.07-.06-.14-.12-.22-.13-.3-.09-1.5.12,1.57.03.07-.12-2.08-.24-4.16-.36-6.24-.01-.2,0-.4,0-.6Z"/>
        <path class="cls-4" d="M25.4,14.09c1.27,3.64,1.57,4.85,2.84,8.49-.04.02-.07.04-.11.07-.06-.1-.14-.19-.18-.3-.59-1.68-.21-.94-.8-2.63-.61-1.74-1.21-3.49-1.82-5.24-.04-.11-.06-.23-.08-.35.05-.01.1-.03.16-.04Z"/>
        <path class="cls-4" d="M21.09,16.29c2.22,3.15,2.96,4.19,5.18,7.34-.03.03-.06.06-.09.09-.08-.07-.16-.13-.22-.22-.87-1.23-.26-.35-1.12-1.58-1.23-1.74-2.45-3.49-3.68-5.23-.07-.1-.12-.22-.18-.33.04-.02.08-.05.12-.07Z"/>
        <path class="cls-4" d="M41.16,31c3.84.19,3.37.13,7.2.31,0,.06,0,.12,0,.18-3.84-.18-3.37-.13-7.21-.31,0-.06.01-.12.02-.18Z"/>
        <path class="cls-4" d="M17.65,29.06c-3.89-.46-.04,0-3.86-.46.25-.21,3.64.21,3.86.46Z"/>
        <path class="cls-4" d="M42.61,44.87c-2.44-2.99-.49-.61-2.92-3.59.05-.05.06-.06.07-.06,0,0,.02-.01.03,0,.04.01.08.02.11.05,2.39,2.94.4.49,2.79,3.43.02.03.03.07.04.11l-.1.07Z"/>
        <path class="cls-4" d="M40.78,32.34c1.84.35,3.22.59,5.06.95.09.02.17.11.25.16-.09.01-.19.05-.27.04-2.7-.51-2.06-.39-4.76-.9-.06-.01-.13-.02-.18-.05-.05-.03-.08-.09-.12-.14.06-.03.11-.07.12-.07"/>
        <path class="cls-4" d="M47.43,36.24c-3.39-1.15-3.43-1.22-6.81-2.37.01-.05.02-.1.03-.14.12.02.24.02.35.06,2.16.74.98.41,3.15,1.15,1.01.35,2.03.69,3.04,1.04.1.04.2.08.3.13-.02.04-.03.09-.05.13Z"/>
        <path class="cls-4" d="M50.39,28.84c-.11.03-.21.09-.32.1-1.47.14-2.95.26-4.42.4-1,.09-3.44.35-4.44.45-.05,0-.11.03-.15.02-.07-.02-.13-.07-.2-.11.06-.04.11-.12.18-.12.65-.07,2.76-.29,3.41-.35,1.74-.16,3.49-.33,5.23-.48.23-.02.47,0,.7,0,0,.04,0,.08.01.12Z"/>
        <path class="cls-4" d="M23.45,42.59c-.07.11-.15.21-.27.38-.06-.29.43-1.16.88-1.44-.03.09-.05.2-.1.28"/>
        <path class="cls-4" d="M43.35,18.32c-.33.3-.67.59-.98.91.35-.35.13-.19-3.45,3.43-.04.04-.04.06-.08.08-.06.03-.14.05-.21.07.02-.07.02-.16.06-.21.27-.29,1.1-1.05,1.38-1.33,1.59-1.61,1.21-1.25,2.81-2.86.1-.1.23-.18.34-.27l.13.17Z"/>
        <path class="cls-4" d="M11.61,30.9c.12-.01.24-.04.36-.04,2.15-.05,4.3-.1,6.45-.15.07,0,.15-.01.22.01.05.02.09.08.1.13,0,.02-.06.08-.1.09-.05.02-.1,0-.15.01-2.17.04-4.34.09-6.51.13-.13,0-.25-.03-.38-.05,0-.05.01-.1.02-.14Z"/>
        <path class="cls-4" d="M24.8,18.36c.11.12.2.2.25.29.99,1.93,1.54,3.13,2.53,5.07.05.1.07.21.12.37-.3-.16-2.93-5.39-2.89-5.73Z"/>
        <path class="cls-4" d="M39.98,38.79c1.77,1.59,3.5,3.24,5.24,4.85.04.04.04.13.01.22-1.82-1.63-3.62-3.26-5.38-4.94.04-.05.08-.09.12-.14Z"/>
        <path class="cls-4" d="M39.52,25.67c2.25-1.27,4.43-2.49,6.6-3.71-.04.32-6.26,3.8-6.6,3.71Z"/>
        <path class="cls-4" d="M13.91,33.27c2.6-.43,3.44-.55,6.05-.98,0,.06-.39.18-.38.24-2.6.44-3.03.51-5.64.92,0-.06-.02-.12-.03-.18Z"/>
        <path class="cls-4" d="M18.48,27.31c.29-.14,3.02.47,3.35.75-.16,0-.26.04-.35.01-1.89-.5-.78-.13-2.67-.63-.09-.02-.18-.07-.34-.14Z"/>
        <path class="cls-4" d="M38.46,47.81c-.29-.09-3.06-6.53-2.93-6.84.98,2.28,1.95,4.56,2.93,6.84Z"/>
        <path class="cls-4" d="M34.92,23.22c.02-.09.01-.18.05-.25.99-1.82.86-1.41,1.86-3.22.04-.07.13-.11.19-.16,0,.09.02.2-.02.27-.99,1.82-.86,1.41-1.85,3.23-.03.06-.09.11-.13.17l-.1-.03Z"/>
        <path class="cls-4" d="M39.91,28.33c2.22-.55,1.2-.27,3.44-.73-.19.25-2.51.68-3.44.73Z"/>
        <path class="cls-4" d="M20.98,26.39c-2.32-.98.03.04-2.29-.93.01-.04.02-.08.03-.12.11.03.23.04.33.09,2.03.85-.61-.29,1.41.56.19.08.38.16.58.24l-.07.16Z"/>
        <path class="cls-4" d="M43.71,39.37c2.06,1.41.47.37,2.52,1.79-.03.04-.06.09-.09.13-2.06-1.41-.47-.37-2.52-1.79.03-.05.06-.09.09-.14Z"/>
        <path class="cls-4" d="M33.3,48.91c-.3-2.11-.55-4.23-.82-6.34.04-.01.07-.02.11-.04.04.08.1.16.11.25.12.87.23,1.74.34,2.61.14,1.07.27,2.13.4,3.2.01.1,0,.2,0,.29-.05,0-.1.01-.15.02Z"/>
        <path class="cls-4" d="M20.75,39.72c-.25.41-2.66,2.4-2.85,2.38.09-.28,2.61-2.39,2.85-2.38Z"/>
        <path class="cls-4" d="M17.39,27.07c-1.73-.46-3.45-.91-5.18-1.37,0-.04.01-.09.02-.13.13,0,.26-.03.39,0,1.52.4,3.03.81,4.55,1.22.11.03.2.1.3.15-.02.04-.05.09-.07.13Z"/>
        <path class="cls-4" d="M21.29,22.83c.33,0,2.65,1.69,2.67,2.01-1.7-1.37-.92-.59-2.67-2.01Z"/>
        <path class="cls-4" d="M33.01,21.02c.41-1.8,1.34-5.65,1.75-7.45.05,0,.09.01.14.02,0,.11.02.22,0,.33-.36,1.61-1.26,5.26-1.62,6.87-.02.1-.07.19-.1.29-.05-.01-.1-.03-.16-.04Z"/>
        <path class="cls-4" d="M22.14,13.2c.06.06.15.11.19.18.72,1.39,1.43,2.78,2.14,4.17.02.03,0,.08.01.11-.03.02-.05.04-.08.06-.08-.09-.18-.18-.23-.28-.62-1.2-1.24-2.41-1.86-3.62-.09-.18-.18-.37-.28-.55.03-.03.06-.05.09-.08Z"/>
        <path class="cls-4" d="M23.4,22.34c.08.06.18.11.25.18.95,1.01-.61-.69.33.33.06.06.07.17.11.26-.08-.03-.19-.04-.25-.1-.97-1.02.58.67-.38-.36-.06-.06-.09-.15-.14-.22.03-.03.06-.06.08-.08Z"/>
        <path class="cls-4" d="M20.6,19.53c-.08-.07-.17-.13-.25-.21-.84-.89-1.67-1.78-2.51-2.67-.04-.05-.09-.09-.12-.15-.02-.05,0-.11,0-.16.05,0,.11,0,.14.02.08.06.16.14.23.21.8.86,1.59,1.71,2.38,2.57.08.09.15.2.22.3-.03.03-.07.06-.1.08Z"/>
        <path class="cls-4" d="M25.62,48.01c0-.08-.03-.16-.01-.23.34-1.15,1.71-5.54,2.06-6.69.02-.06.1-.1.16-.15.01.07.05.15.03.21-.33,1.14-1.7,5.52-2.04,6.66-.02.07-.07.14-.11.21-.03,0-.05,0-.08,0Z"/>
        <path class="cls-4" d="M37.51,18.68c0-.08,0-.18.03-.24.53-.99,1.07-1.99,1.61-2.97.04-.08.12-.13.19-.19l.11.08c-.61,1.11-1.21,2.23-1.82,3.34-.04,0-.08-.01-.12-.02Z"/>
        <path class="cls-4" d="M43.98,27.42c1.3-.33,2.61-.64,3.92-.92.01.06.03.11.04.17-1.31.31-2.61.62-3.92.93l-.04-.17Z"/>
        <path class="cls-4" d="M20.58,22.25c-1.04-.83-2.07-1.67-3.11-2.5.01-.03.03-.06.04-.09.06.02.14.02.18.05.95.75,1.89,1.51,2.84,2.27.06.04.08.12.12.19-.03.03-.05.05-.08.08Z"/>
        <path class="cls-4" d="M22.03,34.93c-.95.45-1.91.91-2.86,1.36.04-.28,2.5-1.47,2.81-1.46.02.03.03.07.05.1Z"/>
        <path class="cls-4" d="M47.14,33.56c.91.16,1.84.26,2.81.53-.33.19-2.68-.27-2.81-.53Z"/>
        <path class="cls-4" d="M17.86,36.83c-.24.28-2.34,1.21-2.52,1.12.24-.28,2.34-1.21,2.52-1.12Z"/>
        <path class="cls-4" d="M21.27,19.99c.53.56,1.05,1.13,1.63,1.74-.36,0-1.67-1.39-1.71-1.68.02-.02.05-.05.07-.07Z"/>
        <path class="cls-4" d="M22.8,43.31c.07.32-.97,1.89-1.29,1.93.43-.68.83-1.32,1.29-1.93Z"/>
        <path class="cls-4" d="M15.06,23.75c.66.28,1.32.56,2.04.86-.29.11-1.92-.57-2.04-.86Z"/>
        <path class="cls-4" d="M27.43,12.96c-.09-.47-.19-.95-.29-1.45.27.06.54,1.13.41,1.42-.04,0-.08.01-.12.02Z"/>
      </g>
    </g>
  </g>
  <g>
    <path class="cls-3" d="M31.97,42.73c-.32-.43-.73-.73-1.17-1.01-.59-.38-1.19-.73-1.78-1.1-.27-.17-.52-.37-.77-.56-.17-.13-.31-.29-.42-.48-.17-.28-.14-.55.08-.8.28-.31.62-.53.98-.73.25-.13.51-.24.76-.36.03-.01.07-.01.1,0,.79.2,1.59.28,2.4.24.59-.03,1.17-.14,1.75-.27.04,0,.09-.01.13,0,.48.2.95.41,1.37.72.2.15.38.31.5.52.14.25.11.47-.06.69-.14.19-.31.36-.51.5-.38.27-.76.53-1.14.79-.43.29-.87.58-1.29.88-.29.2-.55.44-.77.72-.06.07-.11.16-.16.23Z"/>
    <path class="cls-3" d="M27.88,40.32c-.24.07-.48.14-.71.22-.5.17-1,.33-1.49.51-.35.13-.68.3-.95.57-.02.02-.05.05-.07.07,0,0,0,0-.03,0,0-.05-.02-.09-.03-.14-.06-.28-.13-.57-.19-.85-.1-.41-.18-.83-.23-1.25-.06-.51.04-.97.36-1.38.24-.31.56-.53.91-.69.48-.22.99-.32,1.5-.39.19-.02.38-.04.57-.06.03,0,.07,0,.1.01.34.14.68.28,1.02.41.11.04.22.07.33.11.01,0,.03.02.03.03,0,.01-.02.03-.03.04-.43.18-.83.43-1.18.74-.13.11-.25.25-.35.4-.23.36-.22.74,0,1.1.08.14.2.25.3.38.05.06.1.11.15.16Z"/>
    <path class="cls-3" d="M34.55,37.48c.09-.03.15-.06.22-.09.35-.14.69-.28,1.04-.42.04-.02.1-.02.15-.01.5.05,1,.1,1.49.24.4.12.77.29,1.1.55.39.31.63.71.69,1.21.03.24.02.48-.03.71-.1.51-.21,1.03-.32,1.54-.03.17-.07.33-.11.5-.02-.01-.03-.02-.05-.03-.25-.28-.57-.44-.9-.59-.58-.26-1.19-.43-1.79-.62-.1-.03-.21-.06-.32-.09-.02,0-.05-.02-.08-.03.1-.09.19-.18.28-.27.17-.17.32-.36.38-.6.09-.32.02-.62-.16-.89-.18-.27-.41-.48-.68-.64-.26-.16-.53-.3-.79-.45-.04-.02-.08-.02-.15-.04Z"/>
    <path class="cls-3" d="M36.56,36.64c.04-.09.1-.11.17-.12.4-.07.79-.16,1.19-.22.34-.06.69-.1,1.03-.15.14-.02.28-.03.42-.05.44-.06.86.03,1.26.22.87.42,1.5,1.07,1.86,1.97.16.4.22.81.21,1.24,0,.07,0,.13,0,.21-.03-.01-.04-.02-.05-.03-.22-.21-.49-.33-.76-.44-.43-.17-.87-.28-1.33-.35-.28-.05-.57-.09-.85-.12-.07,0-.1-.04-.12-.1-.05-.15-.09-.31-.15-.46-.17-.36-.43-.64-.75-.88-.31-.23-.65-.4-1.02-.51-.29-.09-.59-.14-.88-.2-.08-.02-.16,0-.25,0Z"/>
    <path class="cls-3" d="M26.85,36.63c-.28-.01-.55.06-.82.13-.49.12-.95.31-1.35.62-.39.3-.69.66-.82,1.15-.02.06-.03.12-.05.19-.01.05-.04.07-.09.07-.62.06-1.24.17-1.84.36-.38.11-.74.26-1.06.51-.03.02-.06.05-.1.09,0-.03-.01-.05-.01-.07,0-.58.08-1.13.34-1.65.29-.59.72-1.06,1.26-1.42.39-.26.8-.45,1.27-.5.17-.02.35,0,.53.01.45.05.9.11,1.35.18.24.04.48.09.72.13.19.04.37.07.56.11.05.01.1.05.15.08v.03Z"/>
    <g>
      <path class="cls-3" d="M31.65,37.11c-.46-.04-.91-.17-1.33-.36-.48-.23-.88-.64-1.19-1.07-.62-.87-1.14-1.97-1.08-3.06.11-1.95.69-3.67,1.85-5.14.67-.84,1.2-1.79,1.59-2.83.03-.09.1-.16.15-.23.06.07.14.12.17.2.48,1.13,1.14,2.12,1.87,3.06,1.2,1.54,1.81,3.37,1.79,5.42-.02,1.23-.66,2.32-1.49,3.18-.26.26-.55.48-.88.64s-.8.2-1.17.2c-.09,0-.19,0-.28-.01Z"/>
      <path class="cls-3" d="M21.82,26.76c.4.09.8.17,1.2.29,1.69.48,3.25,1.29,4.65,2.48.4.34.4.38.23.91-.25.81-.52,1.62-.43,2.5.13,1.33.69,2.38,1.63,3.19.08.07.12.18.19.27-.1.03-.2.1-.29.1-1.67,0-3.19-.51-4.43-1.8-.58-.6-.93-1.41-1.26-2.21-.43-1.04-.7-2.13-.74-3.27-.03-.8-.27-1.49-.67-2.14-.05-.07-.08-.16-.11-.24.02-.03.03-.05.05-.08Z"/>
      <path class="cls-3" d="M34.29,36.34c.08-.03.17-.04.23-.09,1.11-1.02,1.71-2.32,1.54-3.95-.06-.63-.3-1.24-.48-1.85-.12-.41-.1-.63.21-.91,1-.91,2.08-1.66,3.3-2.14.74-.29,1.49-.52,2.24-.77.07-.02.15,0,.23,0-.02.08-.02.18-.06.24-.39.66-.59,1.38-.61,2.19-.05,1.91-.61,3.64-1.58,5.19-.49.79-1.23,1.26-1.99,1.65-.78.39-1.6.6-2.45.63-.13,0-.25,0-.38-.02-.03,0-.06-.03-.1-.04-.03-.05-.07-.1-.1-.15Z"/>
      <path class="cls-3" d="M35,25.08c-.04.09-.11.25-.2.4-.26.42-.53.83-.79,1.26-.18.31-.22.32-.44.02-.79-1.09-1.35-2.33-1.74-3.67-.02-.07-.03-.14-.06-.2-.03-.05-.1-.13-.13-.12-.06.01-.12.08-.14.14-.08.27-.15.54-.23.81-.3.99-.73,1.91-1.27,2.76-.23.35-.56.37-.81.02-.23-.33-.46-.67-.69-1.01-.26-.38-.13-.8-.04-1.19.18-.81.58-1.47,1.15-2.03.71-.69,1.32-1.48,1.78-2.41.17-.34.22-.35.41-.03.59.99,1.29,1.86,2.1,2.63.69.65,1.01,1.53,1.09,2.61Z"/>
      <path class="cls-3" d="M24.7,23.07c.39.2.74.37,1.08.57,1.35.8,2.43,1.92,3.24,3.37.19.34.2.63-.02.97-.24.36-.44.76-.65,1.15-.14.26-.3.31-.51.12-.89-.82-1.88-1.48-2.91-2.07-.09-.05-.18-.2-.19-.31-.04-1.18-.07-2.36-.1-3.54,0-.06.02-.11.04-.26Z"/>
      <path class="cls-3" d="M38.65,26.69c0,.17-.04.27-.19.35-.96.52-1.85,1.16-2.67,1.93-.31.29-.62.22-.84-.16-.2-.35-.41-.69-.62-1.03-.15-.24-.16-.47-.02-.73.96-1.85,2.34-3.17,4.07-4.05.2-.1.28-.06.28.2,0,.59,0,1.17.02,1.76"/>
      <path class="cls-3" d="M39.3,34.98c.07-.12.14-.24.21-.35.86-1.23,1.42-2.61,1.67-4.15.03-.21.08-.42.07-.63-.01-.31.14-.47.35-.61,1.3-.84,2.7-1.24,4.19-1.31.06,0,.13.05.19.07-.18.25-.43.42-.65.64-.24.23-.46.46-.68.71-.37.42-.71.87-1.01,1.34-.26.4-.45.85-.72,1.25-.53.79-1.17,1.49-1.88,2.07-.45.36-.93.68-1.43.96-.08.04-.18.06-.26.08-.02-.02-.03-.05-.05-.07Z"/>
      <path class="cls-3" d="M17.73,28.58c.07-.01.14-.04.22-.04,1.4,0,2.72.36,3.96,1.12.23.14.38.35.41.64.22,1.81.89,3.39,1.92,4.79.06.08.08.2.12.3-.1-.01-.21,0-.3-.04-2.01-1.06-3.52-2.68-4.5-4.93-.2-.45-.63-.78-.99-1.13-.2-.2-.45-.32-.68-.48-.06-.04-.12-.09-.18-.14,0-.03.01-.05.02-.08Z"/>
    </g>
  </g>
</svg>